# xmcd
#
# Track frame offsets: 
#        182
#        11372
#        19177
#        34225
#        48950
#        68017
#        89067
#        99557
#        117455
#        141097
#        154140
#        183060
#        202775
#        214330
#        229885
#        242872
#
# Disc length: 3497 seconds
#
# Revision: 2
# Processed by: cddbd v1.4PL0 Copyright (c) Steve Scherf et al.
# Submitted via: ExactAudioCopy v0.90b4
#
DISCID=d80da710
DTITLE=Various Artist - The Tomato Delta Blues Package
DYEAR=1993
DGENRE=Blues
TTITLE0=John Lee Hooker/No Shoes
TTITLE1=Lightnin' Hopkins/Lightnin's Discourse On Cadilac
TTITLE2=Lightnin' Hopkins/Big Car Blues
TTITLE3=Mississipi John Hurt/Talkin Casey
TTITLE4=Little Walter and Otis Rush/Walter's Blues
TTITLE5=Peg Leg Sam/Navaho Trail
TTITLE6=Arthur "Big Boy" Crudup/That's All Right Mamma
TTITLE7=Mississipi Fred McDowell/Some Day
TTITLE8=Johnny Shines/Troubles All I See
TTITLE9=Sonny Terry and Brownie McGhee/Walk On
TTITLE10=Louisiana Red/Walk All Over Georgia
TTITLE11=Brownie McGhee/Christina
TTITLE12=Big Joe Williams/Ride In My New Car Blues
TTITLE13=Howling Wolf/Commit A Crime
TTITLE14=Lightnin' Slim/That's Alright
TTITLE15=Leadbelly/John Hardy
EXTD=
EXTT0=John Lee Hooker
EXTT1=Loghtnin' Hopkins
EXTT2=Loghtnin' Hopkins
EXTT3=Mississippi Joh Hurt
EXTT4=Little Walter and Otis Rush
EXTT5=Peg Leg Sam
EXTT6=Arthur "Big Boy" Crudup
EXTT7=Mississippi Fred McDowell
EXTT8=Johnny Shine
EXTT9=Sonny Terry and Brownie McGhee
EXTT10=Luisiana Red
EXTT11=Brownie McGhee
EXTT12=Big Joe Williams
EXTT13=Howling Wolf
EXTT14=Lightnin' Slim
EXTT15=Leadbelly
PLAYORDER=
